<svg width="40" height="42" viewBox="0 0 40 42" fill="none" xmlns="http://www.w3.org/2000/svg">
<path d="M20 0C8.972 0 0 8.524 0 19C0 24.09 2.176 28.975 6 32.543V41.2344L14.1602 37.1562C16.0782 37.7143 18.04 38 20 38C31.028 38 40 29.476 40 19C40 8.524 31.028 0 20 0ZM20 4C28.822 4 36 10.73 36 19C36 27.27 28.822 34 20 34C18.422 34 16.8313 33.7684 15.2773 33.3164L13.7734 32.8789L12.3711 33.5781L10 34.7656V32.543V30.8047L8.72656 29.6211C5.72256 26.8171 4 22.944 4 19C4 10.73 11.178 4 20 4Z" fill="black"/>
</svg>
